<mxfile host="app.diagrams.net" modified="2022-05-04T16:37:44.992Z" agent="5.0 (Windows NT 10.0; Win64; x64) AppleWebKit/537.36 (KHTML, like Gecko) Chrome/100.0.4896.127 Safari/537.36" etag="aMwK1ELf7P-R2U-FzYep" version="17.5.0" type="github">
  <diagram id="y07GLjX0IBJuWCX477fY" name="Page-1">
    <mxGraphModel dx="482" dy="739" grid="1" gridSize="10" guides="1" tooltips="1" connect="1" arrows="1" fold="1" page="1" pageScale="1" pageWidth="850" pageHeight="1100" math="0" shadow="0">
      <root>
        <mxCell id="0" />
        <mxCell id="1" parent="0" />
        <mxCell id="Qg-lYoNwTqfrgANnpyib-1" value="&lt;div style=&quot;text-align: left&quot;&gt;&lt;span style=&quot;font-size: 40px ; color: rgb(255 , 0 , 0)&quot;&gt;ASYMETRICAL&lt;/span&gt;&lt;/div&gt;&lt;font style=&quot;font-size: 40px&quot; color=&quot;#ff0000&quot;&gt;&lt;div style=&quot;text-align: left&quot;&gt;&lt;span&gt;ANISOTROPIC&lt;/span&gt;&lt;/div&gt;&lt;div style=&quot;text-align: left&quot;&gt;&lt;span&gt;AFFINITIES&lt;/span&gt;&lt;/div&gt;&lt;div style=&quot;text-align: left&quot;&gt;&lt;span&gt;for&lt;/span&gt;&lt;/div&gt;&lt;/font&gt;" style="text;html=1;align=center;verticalAlign=middle;resizable=0;points=[];autosize=1;strokeColor=none;fillColor=none;" vertex="1" parent="1">
          <mxGeometry x="100" y="220" width="300" height="70" as="geometry" />
        </mxCell>
        <mxCell id="Qg-lYoNwTqfrgANnpyib-3" value="SHARED&lt;br&gt;(co-dependable)&lt;br&gt;CONCERNS" style="text;html=1;align=left;verticalAlign=middle;resizable=0;points=[];autosize=1;strokeColor=none;fillColor=none;fontSize=20;fontColor=#FF0000;" vertex="1" parent="1">
          <mxGeometry x="168" y="315" width="160" height="80" as="geometry" />
        </mxCell>
        <mxCell id="Qg-lYoNwTqfrgANnpyib-4" value="" style="endArrow=none;html=1;rounded=0;fontSize=20;fontColor=#FF0000;strokeWidth=2;strokeColor=#FF0000;" edge="1" parent="1">
          <mxGeometry width="50" height="50" relative="1" as="geometry">
            <mxPoint x="168" y="395" as="sourcePoint" />
            <mxPoint x="288" y="395" as="targetPoint" />
          </mxGeometry>
        </mxCell>
        <mxCell id="Qg-lYoNwTqfrgANnpyib-6" value="" style="shape=partialRectangle;whiteSpace=wrap;html=1;bottom=0;right=0;fillColor=none;fontSize=20;fontColor=#FF0000;strokeWidth=2;strokeColor=#FF0000;" vertex="1" parent="1">
          <mxGeometry x="100" y="160" width="230" height="40" as="geometry" />
        </mxCell>
      </root>
    </mxGraphModel>
  </diagram>
</mxfile>
